<?xml version="1.0" encoding="UTF-8" standalone="no"?>
<!-- Generator: Adobe Illustrator 16.0.0, SVG Export Plug-In . SVG Version: 6.00 Build 0)  -->

<svg
   xmlns:dc="http://purl.org/dc/elements/1.1/"
   xmlns:cc="http://creativecommons.org/ns#"
   xmlns:rdf="http://www.w3.org/1999/02/22-rdf-syntax-ns#"
   xmlns:svg="http://www.w3.org/2000/svg"
   xmlns="http://www.w3.org/2000/svg"
   xmlns:sodipodi="http://sodipodi.sourceforge.net/DTD/sodipodi-0.dtd"
   xmlns:inkscape="http://www.inkscape.org/namespaces/inkscape"
   version="1.1"
   id="Capa_1"
   x="0px"
   y="0px"
   width="550.807px"
   height="550.807px"
   viewBox="0 0 550.807 550.807"
   style="enable-background:new 0 0 550.807 550.807;"
   xml:space="preserve"
   sodipodi:docname="forma-circular-de-disco-preto2.svg"
   inkscape:version="0.92.4 (5da689c313, 2019-01-14)"><metadata
   id="metadata51"><rdf:RDF><cc:Work
       rdf:about=""><dc:format>image/svg+xml</dc:format><dc:type
         rdf:resource="http://purl.org/dc/dcmitype/StillImage" /><dc:title></dc:title></cc:Work></rdf:RDF></metadata><defs
   id="defs49" /><sodipodi:namedview
   pagecolor="#ffffff"
   bordercolor="#666666"
   borderopacity="1"
   objecttolerance="10"
   gridtolerance="10"
   guidetolerance="10"
   inkscape:pageopacity="0"
   inkscape:pageshadow="2"
   inkscape:window-width="1680"
   inkscape:window-height="987"
   id="namedview47"
   showgrid="false"
   inkscape:zoom="0.42846223"
   inkscape:cx="275.4035"
   inkscape:cy="275.4035"
   inkscape:window-x="-8"
   inkscape:window-y="-8"
   inkscape:window-maximized="1"
   inkscape:current-layer="Capa_1" />
<g
   id="g14">
	<g
   id="g12">
		<path
   d="M376.009,275.4c0,55.526-45.172,100.706-100.698,100.706c-25.949,0-49.554-9.951-67.43-26.127L103.186,490.316    c47.155,37.814,106.978,60.49,172.125,60.49c152.1,0,275.401-123.301,275.401-275.4c0-8.801-0.459-17.491-1.268-26.083    l-174.756,10.594C375.478,264.978,376.009,270.125,376.009,275.4z"
   id="path2" />
		<path
   d="M371.872,247.034l169.604-42.436c-3.482-13.127-7.906-25.863-13.201-38.14l-159.547,71.537    C369.913,240.944,370.966,243.956,371.872,247.034z"
   id="path4" />
		<path
   d="M275.311,363.865c48.776,0,88.459-39.684,88.459-88.465c0-48.783-39.684-88.458-88.459-88.458    c-48.776,0-88.458,39.682-88.458,88.458C186.853,324.176,226.535,363.865,275.311,363.865z M275.311,229.561    c25.319,0,45.844,20.526,45.844,45.845c0,25.318-20.525,45.838-45.844,45.838c-25.318,0-45.845-20.525-45.845-45.844    C229.466,250.082,249.993,229.561,275.311,229.561z"
   id="path6" />
		<path
   d="M2.585,313.43c7.681,55.576,31.91,105.857,67.602,145.686L198.67,340.559c-12.571-14.76-20.943-33.164-23.311-53.402    L2.585,313.43z"
   id="path8" />
		<path
   d="M275.311,174.702c37.614,0,70.428,20.765,87.717,51.401l143.846-99.701C457.853,50.386,372.491,0,275.311,0    C125.646,0,3.95,119.407,0.095,268.147l174.585,5.894C175.42,219.151,220.243,174.702,275.311,174.702z"
   id="path10" />
	</g>
</g>
<g
   id="g16">
</g>
<g
   id="g18">
</g>
<g
   id="g20">
</g>
<g
   id="g22">
</g>
<g
   id="g24">
</g>
<g
   id="g26">
</g>
<g
   id="g28">
</g>
<g
   id="g30">
</g>
<g
   id="g32">
</g>
<g
   id="g34">
</g>
<g
   id="g36">
</g>
<g
   id="g38">
</g>
<g
   id="g40">
</g>
<g
   id="g42">
</g>
<g
   id="g44">
</g>
<path
   style="fill:#cccccc;stroke-width:2.33392811"
   d="M 77.019624,269.70662 C 54.555567,268.78824 28.405446,267.90886 18.908243,267.75249 L 1.6406013,267.46815 3.0395998,248.21324 C 7.451632,187.48889 39.622155,121.8899 87.113662,76.777614 192.73525,-23.552565 357.86064,-23.753094 463.21252,76.320876 c 15.80127,15.009675 40.83293,45.068544 40.8935,49.106344 0.0233,1.54578 -133.80041,94.916 -138.77517,96.825 -1.53844,0.59035 -5.85973,-3.36107 -9.60288,-8.78093 -9.5663,-13.85144 -31.23251,-29.09157 -49.28516,-34.66747 -59.47101,-18.36872 -122.2189,19.73695 -130.79294,79.4282 l -1.82954,12.73702 -27.97849,0.20375 c -15.38816,0.11198 -46.358159,-0.54777 -68.822216,-1.46617 z"
   id="path53"
   inkscape:connector-curvature="0" /><path
   style="fill:#cccccc;stroke-width:2.33392811"
   d="m 233.3928,546.31032 c -26.61167,-4.17318 -55.08399,-13.40029 -80.44226,-26.0692 -26.10077,-13.03987 -48.37107,-28.42251 -46.23636,-31.93659 0.8734,-1.43777 24.01684,-32.77249 51.42986,-69.63273 l 49.84187,-67.01861 9.44803,6.84412 c 59.49162,43.09551 147.80243,5.119 158.00307,-67.94644 1.14517,-8.20269 1.56765,-18.32734 0.93887,-22.49924 -1.06303,-7.05287 -0.67418,-7.58744 5.53993,-7.61624 3.67577,-0.017 39.2415,-2.10363 79.03497,-4.63688 39.79347,-2.53325 75.76514,-4.61985 79.93703,-4.63689 l 7.58527,-0.031 v 26.53445 c 0,83.33443 -37.01103,159.58107 -103.14914,212.4981 -58.02651,46.42694 -138.29977,67.69381 -211.93114,56.14712 z"
   id="path55"
   inkscape:connector-curvature="0" /><path
   style="fill:#cccccc;stroke-width:2.33392811"
   d="m 371.09455,241.14732 c 0,-2.62512 149.95396,-71.70415 155.65246,-71.70415 2.26018,0 13.71914,32.12419 12.05321,33.79012 -1.37415,1.37415 -160.01168,40.89558 -164.15333,40.89558 -1.95379,0 -3.55234,-1.3417 -3.55234,-2.98155 z"
   id="path57"
   inkscape:connector-curvature="0" /><path
   style="fill:#cccccc;stroke-width:2.33392811"
   d="M 62.823595,448.7499 C 43.55811,425.08351 25.384384,391.97923 15.626881,362.77889 9.0486612,343.09289 3.3553641,317.01515 5.2270962,315.14342 6.0378092,314.33271 169.36721,288.53944 174.08972,288.47633 c 0.11665,-0.002 1.47784,5.65317 3.02488,12.56606 1.54704,6.9129 6.44037,18.59308 10.87407,25.95598 4.43371,7.36289 8.06128,13.61756 8.06128,13.89927 0,1.1006 -123.864806,114.47581 -125.480468,114.85405 -0.945233,0.22128 -4.430883,-2.92952 -7.745887,-7.00179 z"
   id="path59"
   inkscape:connector-curvature="0" /><path
   style="fill:#cccccc;stroke-width:2.33392811"
   d="m 256.13908,360.77183 c -25.1368,-6.34462 -49.03273,-25.76036 -59.69194,-48.50044 -5.45431,-11.63609 -6.23201,-16.21387 -6.23201,-36.68357 0,-21.72397 0.5459,-24.49723 7.67103,-38.97044 33.48463,-68.01694 132.29186,-62.27369 159.2592,9.25707 7.25225,19.23656 5.85743,48.07539 -3.22286,66.63483 -13.93048,28.47287 -42.23447,47.65739 -73.04847,49.51243 -8.78526,0.52889 -19.91599,-0.0336 -24.73495,-1.24988 z m 37.20043,-42.10575 c 15.52649,-5.86631 28.74661,-25.81637 28.51374,-43.02918 -0.36177,-26.74026 -20.05134,-46.35579 -46.69569,-46.52009 -33.07513,-0.20396 -55.51632,33.09305 -42.80791,63.51603 4.50007,10.77284 14.00979,21.09861 23.21547,25.20764 8.48349,3.78668 28.76408,4.22993 37.77439,0.8256 z"
   id="path61"
   inkscape:connector-curvature="0" /></svg>